# xmcd
#
# Track frame offsets: 
#        150
#        3821
#        22232
#        40852
#        59149
#        74138
#        87635
#        93684
#        114754
#        132531
#        148273
#        154162
#        175630
#        187160
#        193003
#        208885
#
# Disc length: 2979 seconds
#
# Revision: 0
# Processed by: cddbd v1.5.2PL0 Copyright (c) Steve Scherf et al.
# Submitted via: ExactAudioCopy v0.99pb4
#
DISCID=fb0ba110
DTITLE=Danity Kane - Welcome to the Dollhouse
DYEAR=2008
DGENRE=R&B
TTITLE0=Welcome to the Dollhouse (feat. P. Diddy)
TTITLE1=Bad Girl (feat. Missy Elliott)
TTITLE2=Damaged
TTITLE3=Pretty Boy
TTITLE4=Strip Tease
TTITLE5=Sucka for Love
TTITLE6=Secret Place (Interlude)
TTITLE7=Ecstasy (feat. Rick Ross)
TTITLE8=2 of You
TTITLE9=Lights Out
TTITLE10=Picture This (Interlude)
TTITLE11=Poetry
TTITLE12=Key to My Heart
TTITLE13=Flashback (Interlude)
TTITLE14=Is Anybody Listening
TTITLE15=Ain't Going
EXTD=
EXTT0=
EXTT1=
EXTT2=
EXTT3=
EXTT4=
EXTT5=
EXTT6=
EXTT7=
EXTT8=
EXTT9=
EXTT10=
EXTT11=
EXTT12=
EXTT13=
EXTT14=
EXTT15=
PLAYORDER=
